<?xml version="1.0" encoding="UTF-8" standalone="no"?>
<!DOCTYPE svg PUBLIC "-//W3C//DTD SVG 1.1//EN" "http://www.w3.org/Graphics/SVG/1.1/DTD/svg11.dtd">
<svg width="100%" height="100%" viewBox="0 0 709 267" version="1.1" xmlns="http://www.w3.org/2000/svg" xmlns:xlink="http://www.w3.org/1999/xlink" xml:space="preserve" xmlns:serif="http://www.serif.com/" style="fill-rule:evenodd;clip-rule:evenodd;stroke-linecap:round;stroke-linejoin:round;">
    <g transform="matrix(4.16667,0,0,4.16667,0,0)">
        <g transform="matrix(1,0,0,1,1.27919,12.1637)">
            <text x="63.049px" y="33.855px" style="font-family:'Impact', sans-serif;font-stretch:condensed;font-size:36px;fill:white;">VeedIt</text>
        </g>
        <g transform="matrix(1,0,0,1,7.90624,7.82245)">
            <path d="M38,16L44,16L44,32L4,32L4,16L24,16" style="fill:white;fill-rule:nonzero;stroke:black;stroke-width:4px;"/>
        </g>
        <g transform="matrix(1,0,0,1,7.90624,7.82245)">
            <rect x="6" y="32" width="6" height="6" style="fill:rgb(47,136,255);fill-rule:nonzero;stroke:black;stroke-width:4px;"/>
        </g>
        <g transform="matrix(1,0,0,1,7.90624,7.82245)">
            <rect x="36" y="32" width="6" height="6" style="fill:rgb(47,136,255);fill-rule:nonzero;stroke:black;stroke-width:4px;"/>
        </g>
        <g transform="matrix(1,0,0,1,7.90624,7.82245)">
            <path d="M10,24L18,24" style="fill:none;fill-rule:nonzero;stroke:black;stroke-width:4px;"/>
        </g>
        <g transform="matrix(1,0,0,1,7.90624,7.82245)">
            <circle cx="31" cy="16" r="7" style="fill:rgb(47,136,255);stroke:black;stroke-width:4px;"/>
        </g>
        <g transform="matrix(1,0,0,1,7.90624,7.82245)">
            <circle cx="31" cy="16" r="3" style="fill:white;"/>
        </g>
    </g>
</svg>
